<mxfile host="Electron" agent="Mozilla/5.0 (Macintosh; Intel Mac OS X 10_15_7) AppleWebKit/537.36 (KHTML, like Gecko) draw.io/26.0.16 Chrome/132.0.6834.196 Electron/34.2.0 Safari/537.36" version="26.0.16">
  <diagram name="PÃ¡gina-1" id="CjGGJW2ovo9NFjpw-eJ7">
    <mxGraphModel dx="2074" dy="1109" grid="1" gridSize="10" guides="1" tooltips="1" connect="1" arrows="1" fold="1" page="1" pageScale="1" pageWidth="827" pageHeight="1169" math="0" shadow="0">
      <root>
        <mxCell id="0" />
        <mxCell id="1" parent="0" />
        <mxCell id="Bc0vssXFJxNKanA05xmi-1" value="" style="rounded=0;whiteSpace=wrap;html=1;" vertex="1" parent="1">
          <mxGeometry x="330" y="200" width="470" height="310" as="geometry" />
        </mxCell>
        <mxCell id="Bc0vssXFJxNKanA05xmi-2" value="frontend" style="rounded=1;whiteSpace=wrap;html=1;" vertex="1" parent="1">
          <mxGeometry x="620" y="250" width="120" height="60" as="geometry" />
        </mxCell>
        <mxCell id="Bc0vssXFJxNKanA05xmi-12" style="edgeStyle=orthogonalEdgeStyle;rounded=0;orthogonalLoop=1;jettySize=auto;html=1;" edge="1" parent="1" source="Bc0vssXFJxNKanA05xmi-3" target="Bc0vssXFJxNKanA05xmi-4">
          <mxGeometry relative="1" as="geometry" />
        </mxCell>
        <mxCell id="Bc0vssXFJxNKanA05xmi-3" value="backend" style="rounded=1;whiteSpace=wrap;html=1;" vertex="1" parent="1">
          <mxGeometry x="390" y="250" width="120" height="60" as="geometry" />
        </mxCell>
        <mxCell id="Bc0vssXFJxNKanA05xmi-4" value="database" style="shape=cylinder3;whiteSpace=wrap;html=1;boundedLbl=1;backgroundOutline=1;size=15;" vertex="1" parent="1">
          <mxGeometry x="390" y="380" width="80" height="100" as="geometry" />
        </mxCell>
        <mxCell id="Bc0vssXFJxNKanA05xmi-13" style="edgeStyle=orthogonalEdgeStyle;rounded=0;orthogonalLoop=1;jettySize=auto;html=1;" edge="1" parent="1" source="Bc0vssXFJxNKanA05xmi-5" target="Bc0vssXFJxNKanA05xmi-4">
          <mxGeometry relative="1" as="geometry" />
        </mxCell>
        <mxCell id="Bc0vssXFJxNKanA05xmi-5" value="scheduler" style="rounded=1;whiteSpace=wrap;html=1;" vertex="1" parent="1">
          <mxGeometry x="620" y="400" width="120" height="60" as="geometry" />
        </mxCell>
        <mxCell id="Bc0vssXFJxNKanA05xmi-11" style="edgeStyle=orthogonalEdgeStyle;rounded=0;orthogonalLoop=1;jettySize=auto;html=1;" edge="1" parent="1" source="Bc0vssXFJxNKanA05xmi-6" target="Bc0vssXFJxNKanA05xmi-3">
          <mxGeometry relative="1" as="geometry" />
        </mxCell>
        <mxCell id="Bc0vssXFJxNKanA05xmi-6" value="cli" style="rounded=1;whiteSpace=wrap;html=1;" vertex="1" parent="1">
          <mxGeometry x="90" y="250" width="120" height="60" as="geometry" />
        </mxCell>
        <mxCell id="Bc0vssXFJxNKanA05xmi-8" style="edgeStyle=orthogonalEdgeStyle;rounded=0;orthogonalLoop=1;jettySize=auto;html=1;" edge="1" parent="1" source="Bc0vssXFJxNKanA05xmi-7" target="Bc0vssXFJxNKanA05xmi-2">
          <mxGeometry relative="1" as="geometry" />
        </mxCell>
        <mxCell id="Bc0vssXFJxNKanA05xmi-9" style="edgeStyle=orthogonalEdgeStyle;rounded=0;orthogonalLoop=1;jettySize=auto;html=1;" edge="1" parent="1" source="Bc0vssXFJxNKanA05xmi-7" target="Bc0vssXFJxNKanA05xmi-3">
          <mxGeometry relative="1" as="geometry">
            <Array as="points">
              <mxPoint x="450" y="100" />
            </Array>
          </mxGeometry>
        </mxCell>
        <mxCell id="Bc0vssXFJxNKanA05xmi-10" style="edgeStyle=orthogonalEdgeStyle;rounded=0;orthogonalLoop=1;jettySize=auto;html=1;" edge="1" parent="1" source="Bc0vssXFJxNKanA05xmi-7" target="Bc0vssXFJxNKanA05xmi-6">
          <mxGeometry relative="1" as="geometry" />
        </mxCell>
        <mxCell id="Bc0vssXFJxNKanA05xmi-7" value="Actor" style="shape=umlActor;verticalLabelPosition=bottom;verticalAlign=top;html=1;outlineConnect=0;" vertex="1" parent="1">
          <mxGeometry x="250" y="40" width="30" height="60" as="geometry" />
        </mxCell>
      </root>
    </mxGraphModel>
  </diagram>
</mxfile>
